<?xml version="1.0" encoding="UTF-8"?>
<svg width="260px" height="19px" viewBox="0 0 260 19" version="1.1" xmlns="http://www.w3.org/2000/svg" xmlns:xlink="http://www.w3.org/1999/xlink">
    <!-- Generator: Sketch 50 (54983) - http://www.bohemiancoding.com/sketch -->
    <title>Group 15</title>
    <desc>Created with Sketch.</desc>
    <defs></defs>
    <g id="Page-1" stroke="none" stroke-width="1" fill="none" fill-rule="evenodd">
        <g id="Artboard-Copy" transform="translate(-590.000000, -30.000000)" fill="#8C8A86">
            <g id="Group-15" transform="translate(590.000000, 30.000000)">
                <path d="M76.9027726,10.2702703 L76.9027726,0 L81.9124065,0 L81.9124065,10.270271 C81.9124065,11.1095061 81.9384828,11.8903907 81.9124065,12.6239693 L81.9124065,12.8378378 L81.9031869,12.8378378 C81.8343865,14.183997 81.5590866,15.3705379 80.5753333,16.468328 C79.4758767,17.6952337 78.0789896,18.4862471 76.1582081,18.4862471 C75.64833,18.4862471 74.5207102,18.5084676 73.88431,18.4862471 C73.43158,18.4704396 72.8497195,18.2947896 72.1387283,17.959297 L72.1387283,14.0980627 C74.3279796,14.3726736 75.6492927,14.2514047 76.1026676,13.7342562 C76.7827299,12.9585334 76.9027726,12.0883086 76.9027726,10.2702703 Z" id="Combined-Shape"></path>
                <path d="M7.01348748,4.1137485 L7.01348748,4.10810811 L5.00963391,4.10810811 L5.00963391,14.3783784 L7.01348748,14.3783784 L7.01348748,14.372738 C9.23778841,14.2669661 10.7919584,12.6695726 10.7919584,9.24324324 C10.7919584,5.81691384 9.23778841,4.2195204 7.01348748,4.1137485 Z M9.01734104,0.0202146986 C12.9338888,0.337310989 16.0308285,4.3454072 16.0308285,9.24324324 C16.0308285,14.1410793 12.9338888,18.1491755 9.01734104,18.4662718 L9.01734104,18.4864865 L0,18.4864865 L0,0 L9.01734104,0 L9.01734104,0.0202146986 Z" id="Combined-Shape"></path>
                <path d="M119.229287,4.1137485 L119.229287,4.10810811 L117.225434,4.10810811 L117.225434,14.3783784 L119.229287,14.3783784 L119.229287,14.372738 C121.453588,14.2669661 123.007758,12.6695726 123.007758,9.24324324 C123.007758,5.81691384 121.453588,4.2195204 119.229287,4.1137485 Z M121.233141,0.0202146986 C125.149688,0.337310989 128.246628,4.3454072 128.246628,9.24324324 C128.246628,14.1410793 125.149688,18.1491755 121.233141,18.4662718 L121.233141,18.4864865 L112.2158,18.4864865 L112.2158,0 L121.233141,0 L121.233141,0.0202146986 Z" id="Combined-Shape-Copy"></path>
                <path d="M34.0655106,7.18918919 L40.0770713,7.18918919 L40.0770713,11.2972973 L34.0655106,11.2972973 L34.0655106,14.3783784 L42.0809249,14.3783784 L42.0809249,18.4864865 L34.0655106,18.4864865 L29.0558767,18.4864865 L29.0558767,0 L34.0655106,0 L42.0809249,0 L42.0809249,4.10810811 L34.0655106,4.10810811 L34.0655106,7.18918919 Z" id="Combined-Shape"></path>
                <ellipse id="Oval-5" cx="57.1098266" cy="15.9189189" rx="3.00578035" ry="3.08108108"></ellipse>
                <path d="M146.28131,7.18918919 L152.292871,7.18918919 L152.292871,11.2972973 L146.28131,11.2972973 L146.28131,14.3783784 L154.296724,14.3783784 L154.296724,18.4864865 L146.28131,18.4864865 L141.271676,18.4864865 L141.271676,0 L146.28131,0 L154.296724,0 L154.296724,4.10810811 L146.28131,4.10810811 L146.28131,7.18918919 Z" id="Combined-Shape-Copy-2"></path>
                <path d="M165.317919,12.3514764 L170.378432,12.3514764 C170.488018,13.1939638 170.711101,13.5108915 171.047688,13.9521943 C171.595619,14.6663026 172.378367,15.0233514 173.395954,15.0233514 C174.15523,15.0233514 174.740334,14.8408153 175.151283,14.4757374 C175.562231,14.1106596 175.767702,13.6874163 175.767702,13.205995 C175.767702,12.7486448 175.572015,12.3394428 175.180636,11.9783768 C174.789256,11.6173108 173.648242,11.6955802 172.22362,11.3746327 C169.890997,10.8370455 168.227659,10.1229479 167.233555,9.23231847 C166.231623,8.34168901 165.963692,6.787083 165.963692,5.40700853 C165.963692,4.5003317 166.220042,3.64381577 166.732749,2.83743505 C167.245457,2.03105433 168.016463,1.39719242 169.045791,0.935830319 C170.07512,0.474468215 171.486022,0 173.27854,0 C175.478094,0 177.15513,0.663022072 178.3097,1.50149755 C179.46427,2.33997302 180.151131,3.67389127 180.370303,5.50329231 L175.356756,5.50329231 C175.223687,4.70894712 174.943854,4.43213702 174.517251,4.07107103 C174.090647,3.71000503 173.501629,3.52947474 172.750181,3.52947474 C172.131801,3.52947474 171.666066,3.66386952 171.352962,3.93266309 C171.039859,4.20145666 170.883309,4.52841708 170.883309,4.91355414 C170.883309,5.19438324 170.937368,5.83515449 171.195678,6.05981777 C171.738463,6.53294844 171.993124,6.62410391 172.932435,6.82469612 C175.25723,7.33821221 177.045545,7.35474661 178.051391,7.88029822 C179.057236,8.40584984 179.789105,9.05776477 180.24702,9.83606258 C180.704934,10.6143604 180.933887,11.4849176 180.933887,12.4477602 C180.933887,13.5791003 180.628616,14.6221642 180.018064,15.5769832 C179.407511,16.5318022 178.554317,17.2559292 177.458454,17.7493861 C176.362591,18.2428429 174.981042,18.7117265 173.313764,18.7117265 C170.386245,18.7117265 168.358929,17.9118707 167.231756,16.7564595 C166.104583,15.6010484 165.466643,14.1327353 165.317919,12.3514764 Z" id="S"></path>
                <rect id="Rectangle-15" x="193.872832" y="0" width="5.00963391" height="18.4864865"></rect>
                <path d="M221.570304,11.8230296 L221.570304,8.15221038 L230.290198,8.15221038 C230.290198,9.94569963 230.290198,11.1662012 230.290198,11.8137151 C230.290198,12.784986 230.001519,14.0250197 228.965937,15.4335237 C227.930354,16.8420276 226.824555,17.5218241 225.615192,17.9189967 C224.405829,18.3161693 222.971445,18.668371 221.311995,18.668371 C219.268994,18.668371 217.603698,18.1577038 216.316059,17.4435955 C215.02842,16.7294872 213.678502,15.6663644 212.970105,14.2541952 C212.261708,12.842026 211.907514,11.2212651 211.907514,9.3918641 C211.907514,7.46617879 212.294974,5.79125889 213.069906,4.36705413 C213.844838,2.94284938 214.979822,1.86167353 216.474892,1.12349417 C217.641203,0.553812264 219.597751,9.09494702e-13 221.570304,9.09494702e-13 C223.472409,9.09494702e-13 224.859829,0.445494091 225.803054,0.798536396 C226.746278,1.1515787 227.529026,1.69918725 228.151319,2.44137846 C228.773613,3.18356967 229.241305,4.12433306 229.554408,5.26369687 L229.645483,6.20246376 L224.423447,6.20246376 C224.212102,5.53649759 223.853995,5.027001 223.349116,4.67395869 C222.844236,4.32091639 222.200426,4.14439788 221.417667,4.14439788 C220.251356,4.14439788 219.083223,4.56211633 218.390481,5.39256812 C217.697739,6.2230199 217.351373,7.53687923 217.351373,9.33418552 C217.351373,11.2438234 217.701653,12.6078301 218.402222,13.4262463 C219.102792,14.2446626 220.31789,14.6513658 221.570304,14.6513658 C222.165201,14.6513658 222.732693,14.5631065 223.272797,14.3865854 C223.812901,14.2100642 224.718477,13.7420794 224.923202,13.528683 C225.127927,13.3152865 225.127927,13.2309357 225.127927,13.104441 C225.127927,12.819683 225.127927,12.3925458 225.127927,11.8230296 L221.570304,11.8230296 Z" id="G"></path>
                <polygon id="N" points="243.468208 0 248.43479 0 254.916004 10.7877956 254.916004 0 259.929552 0 259.929552 18.6710304 254.916004 18.6710304 248.470014 7.95544764 248.470014 18.6710304 243.468208 18.6710304"></polygon>
            </g>
        </g>
    </g>
</svg>